<svg xmlns="http://www.w3.org/2000/svg" width="395" height="395" viewBox="176 146 395 395" role="img" aria-label="gonatter"><path fill="#FE5F59" transform="scale(0.891385 0.891385)" d="M427.91 289.964C458.024 266.354 489.139 253.56 528.244 258.339C561.001 262.35 590.823 279.206 611.154 305.201C643.996 347.663 643.868 396.581 614.787 440.75C614.454 465.846 618.784 477.252 628.904 499.24C630.042 501.713 628.659 504.663 627.309 506.87C611.759 517.45 567.471 492.331 553.941 482.657C506.193 497.3 465.335 488.771 427.059 456.632L427.066 456.251C376.389 409.725 377.945 336.682 427.884 290.309L427.91 289.964Z"/><path fill="#1C3045" transform="scale(0.891385 0.891385)" d="M427.884 290.309C477.033 336.441 480.183 412.087 427.066 456.251C376.389 409.725 377.945 336.682 427.884 290.309Z"/><path fill="#00BBAF" transform="scale(0.891385 0.891385)" d="M234.845 447.606C221.44 429.312 211.949 412.079 209.374 389.197C201.724 321.21 256.32 262.848 322.696 256.561C366.938 252.37 394.45 263.665 427.91 289.964L427.884 290.309C377.945 336.682 376.389 409.725 427.066 456.251L427.059 456.632C389.032 487.601 347.27 497.591 299.481 485.489C279.287 499.447 258.481 509.453 234.199 513.909C229.28 515.317 217.8 511.753 220.58 504.784C229.609 482.145 235.269 472.973 234.845 447.606Z"/></svg>