<svg xmlns="http://www.w3.org/2000/svg" width="1768" height="707" viewBox="0 0 1768 707" role="img" aria-label="gonatter"><path fill="#FE5F59" transform="scale(0.891385 0.891385)" d="M427.91 289.964C458.024 266.354 489.139 253.56 528.244 258.339C561.001 262.35 590.823 279.206 611.154 305.201C643.996 347.663 643.868 396.581 614.787 440.75C614.454 465.846 618.784 477.252 628.904 499.24C630.042 501.713 628.659 504.663 627.309 506.87C611.759 517.45 567.471 492.331 553.941 482.657C506.193 497.3 465.335 488.771 427.059 456.632L427.066 456.251C376.389 409.725 377.945 336.682 427.884 290.309L427.91 289.964Z"/><path fill="#1C3045" transform="scale(0.891385 0.891385)" d="M427.884 290.309C477.033 336.441 480.183 412.087 427.066 456.251C376.389 409.725 377.945 336.682 427.884 290.309Z"/><path fill="#00BBAF" transform="scale(0.891385 0.891385)" d="M234.845 447.606C221.44 429.312 211.949 412.079 209.374 389.197C201.724 321.21 256.32 262.848 322.696 256.561C366.938 252.37 394.45 263.665 427.91 289.964L427.884 290.309C377.945 336.682 376.389 409.725 427.066 456.251L427.059 456.632C389.032 487.601 347.27 497.591 299.481 485.489C279.287 499.447 258.481 509.453 234.199 513.909C229.28 515.317 217.8 511.753 220.58 504.784C229.609 482.145 235.269 472.973 234.845 447.606Z"/><path fill="#FFFFFF" transform="scale(0.891385 0.891385)" d="M759.338 321.691C779.557 319.2 791.451 324.293 806.136 337.561C813.208 314.903 840.527 319.255 840.457 342.364C840.361 374.342 840.137 406.564 840.451 438.511C840.653 459.062 841.074 479.926 827.654 496.858C803.75 528.078 742.957 527.492 717.109 499.224C713.142 494.885 712.142 491.171 711.874 485.281C716.182 469.543 730.585 465.268 742.124 477.204C760.162 495.863 800.58 493.715 805.089 463.181C806.004 456.985 805.717 451.324 805.605 445.3C798.486 451.162 790.841 455.667 781.556 457.324C718.151 468.64 683.823 397.403 716.992 347.861C727.167 332.665 741.416 324.865 759.338 321.691Z"/><path fill="#1C3045" transform="scale(0.891385 0.891385)" d="M770.826 352.682C812.527 349.555 822.833 417.538 776.279 426.926C732.248 428.824 723.917 361.238 770.826 352.682Z"/><path fill="#FFFFFF" transform="scale(0.891385 0.891385)" d="M1445.13 323.065C1445.17 307.399 1440.76 287.726 1463.24 287.239C1485.62 286.753 1482.01 307.546 1481.76 323.158C1488.82 323.047 1508.42 321.061 1514.19 327.234C1520.78 334.278 1519.97 350.007 1509.45 353.282C1502.36 355.491 1490.04 354.613 1481.76 354.47C1481.75 361.737 1481.49 369.641 1481.72 376.748C1482.31 390.132 1479.59 405.909 1483.99 418.604C1489.26 432.22 1511.43 419.897 1516.19 433.848C1526.5 464.097 1482.07 462.578 1465.88 454.18C1454.04 448.035 1449.73 438.726 1445.93 426.658C1444.13 410.76 1445.13 372.045 1445.15 354.464L1384.31 354.509C1384.5 372.231 1383.83 390.577 1384.28 408.637C1383.66 438.429 1417.2 414.851 1419.14 438.532C1421.58 468.165 1375.01 461.968 1360.79 448.774C1349.38 438.194 1347.87 426.325 1347.85 411.509C1347.81 392.337 1347.9 373.509 1347.95 354.51C1339.64 354.706 1333.09 355.789 1326.63 349.425C1320.49 343.368 1320.64 334.253 1326.82 328.256C1333.27 321.982 1339.67 323.037 1347.99 323.157C1347.78 308.12 1344.04 295.435 1359.31 287.678C1360.34 287.619 1361.37 287.578 1362.4 287.556C1387.92 286.996 1384.53 303.715 1384.32 323.188L1445.13 323.065Z"/><path fill="#FFFFFF" transform="scale(0.891385 0.891385)" d="M1221.5 321.65C1223.26 321.484 1225.03 321.369 1226.79 321.304C1247.08 320.576 1257.38 325.345 1271.94 338.898C1277.72 312.1 1304.15 326.233 1304.39 331.231C1305.48 353.582 1310.3 435.246 1303.41 452.445C1299.99 455.922 1296.08 458.043 1291.33 458.22C1272.49 458.921 1273.55 445.323 1271.4 443.508L1269.75 444.876C1250.37 463.252 1215.25 464.947 1195 449.655C1146.92 413.337 1159.55 333.617 1221.5 321.65Z"/><path fill="#1C3045" transform="scale(0.891385 0.891385)" d="M1235.64 352.707C1281.59 353.513 1285.63 421.067 1237.74 427.779C1192.18 426.271 1188.06 359.403 1235.64 352.707Z"/><path fill="#FFFFFF" transform="scale(0.891385 0.891385)" d="M916.358 321.409C954.65 314.842 991.001 340.6 997.497 378.904C1003.99 417.207 978.166 453.51 939.85 459.935C901.636 466.342 865.449 440.598 858.97 402.396C852.491 364.193 878.167 327.959 916.358 321.409Z"/><path fill="#1C3045" transform="scale(0.891385 0.891385)" d="M928.26 352.757C935.41 353.109 941.524 354.722 947.453 358.707C970.812 374.403 967.375 415.252 940.652 425.558C937.38 426.819 933.575 427.422 930.152 428.041C882.157 425.412 880.505 358.501 928.26 352.757Z"/><path fill="#FFFFFF" transform="scale(0.891385 0.891385)" d="M1590.43 321.662C1591.76 321.571 1593.1 321.49 1594.43 321.419C1614.46 320.361 1628.5 323.874 1645.23 337.27C1659.08 348.362 1680.21 394.411 1651.5 400.51C1645.23 401.841 1629.37 401.165 1621.74 401.129C1603.57 400.926 1585.41 400.923 1567.25 401.122C1576.55 436.812 1608.31 435.873 1634.68 420.628C1639.04 418.107 1641.1 417.997 1646.02 418.139C1651.44 420.597 1656.43 424.498 1657.61 430.656C1660.73 446.948 1634.6 455.424 1622.78 457.765C1601.64 461.853 1578.18 460.652 1559.86 448.45C1518.17 420.68 1522.69 348.775 1568.99 327.972C1576.7 324.508 1582.15 323.227 1590.43 321.662Z"/><path fill="#1C3045" transform="scale(0.891385 0.891385)" d="M1598.44 349.901C1617.05 350.206 1626.99 357.966 1630.56 376.555L1603.38 376.576L1567.87 376.552C1572.88 359.572 1580.81 352.305 1598.44 349.901Z"/><path fill="#FFFFFF" transform="scale(0.891385 0.891385)" d="M1085.97 321.658C1117.6 320.011 1144.46 334.293 1146.84 369.965C1148.51 394.975 1148.44 425.134 1145.72 449.644C1144.82 457.8 1127.78 459.913 1121.65 456.997C1101.19 438.579 1120.62 394.506 1109.03 369.333C1100.52 350.868 1084.7 350.215 1067.82 357.373C1037.9 378.948 1059.81 422.232 1048.63 451.421C1045.44 463.082 1017.63 459.021 1017.51 447.018C1017.23 419.843 1013.8 353.845 1019.5 329.638C1020.54 325.23 1046.69 312.738 1050.84 340.391C1061.96 328.404 1069.85 324.615 1085.97 321.658Z"/><path fill="#FFFFFF" transform="scale(0.891385 0.891385)" d="M1753.58 321.651C1772.19 320.737 1779.8 324.524 1777.42 345.676C1776.12 357.239 1756.37 355.599 1748.4 357.486C1743.41 358.668 1741.56 359.828 1736.95 362.434C1702 382.212 1751.77 468.59 1695.11 456.928C1690.6 453.96 1687.13 449.653 1687.05 444.023C1686.41 409.229 1686.72 376.053 1687 341.072C1687.15 323.215 1703 318.095 1717.19 327.888C1721.16 330.626 1721.66 337.725 1721.94 342.6C1731.66 329.405 1737.4 325.251 1753.58 321.651Z"/></svg>